<svg width="100" height="100" viewBox="0 0 100 100" fill="none" xmlns="http://www.w3.org/2000/svg">
<path d="M100 50C100 77.6142 77.6142 100 50 100C22.3858 100 0 77.6142 0 50C0 22.3858 22.3858 0 50 0C77.6142 0 100 22.3858 100 50Z" fill="#EB1E2A"/>
<path d="M22.4942 57.1223L15.625 61.8013C16.5564 63.6362 17.8565 65.3244 19.5253 66.8657C21.1941 68.407 23.1539 69.6364 25.4048 70.5539C27.6946 71.4346 30.1589 71.875 32.7979 71.875C34.6996 71.875 36.543 71.5998 38.3282 71.0493C40.1522 70.5355 41.7628 69.7649 43.1599 68.7373C44.5959 67.7097 45.7213 66.4437 46.5363 64.939C47.3901 63.3977 47.817 61.6545 47.817 59.7095C47.817 58.0948 47.5453 56.6636 47.002 55.4158C46.4587 54.1681 45.7019 53.0671 44.7317 52.113C43.8003 51.1588 42.7136 50.3515 41.4717 49.6909C40.2299 48.9936 38.8909 48.3881 37.455 47.8743C35.5534 47.2505 33.9234 46.6633 32.5651 46.1128C31.2456 45.5623 30.2172 44.9568 29.4798 44.2962C28.7812 43.6357 28.4319 42.865 28.4319 41.9842C28.4319 41.1402 28.8006 40.4429 29.538 39.8924C30.2754 39.3053 31.3426 39.0117 32.7397 39.0117C33.7876 39.0117 34.7578 39.2135 35.6504 39.6172C36.5818 39.9842 37.4162 40.5163 38.1536 41.2136C38.9298 41.8742 39.6089 42.6632 40.191 43.5806L47.7006 39.6172C47.002 38.2961 45.993 36.9933 44.6735 35.7088C43.354 34.4244 41.6852 33.3602 39.6671 32.5161C37.6879 31.672 35.3399 31.25 32.6233 31.25C29.9843 31.25 27.5781 31.6904 25.4048 32.5711C23.2704 33.4152 21.5628 34.6629 20.2821 36.3144C19.0402 37.9658 18.4192 39.9291 18.4192 42.2044C18.4192 44.1127 18.7879 45.7458 19.5253 47.1037C20.2627 48.4248 21.1941 49.5624 22.3195 50.5166C23.445 51.4341 24.6287 52.1864 25.8706 52.7735C27.1512 53.3607 28.2767 53.8194 29.2469 54.1497C31.2262 54.847 32.8174 55.4709 34.0204 56.0213C35.2235 56.5718 36.0967 57.159 36.64 57.7829C37.1834 58.37 37.455 59.159 37.455 60.1499C37.455 61.3242 36.9893 62.2601 36.0579 62.9573C35.1265 63.6179 33.9428 63.9482 32.5069 63.9482C31.1486 63.9482 29.8485 63.6729 28.6066 63.1225C27.4035 62.572 26.2781 61.783 25.2302 60.7554C24.2212 59.7279 23.3092 58.5168 22.4942 57.1223Z" fill="white"/>
<path d="M54.3951 32.1308V70.664H64.2332V32.1308H54.3951ZM60.5657 39.7824H68.541C70.5202 39.7824 72.0726 40.2044 73.198 41.0484C74.3235 41.8925 74.8862 43.1219 74.8862 44.7366C74.8862 46.3146 74.3235 47.5257 73.198 48.3697C72.0726 49.2138 70.5202 49.6358 68.541 49.6358H60.5657V57.2874H68.541C71.995 57.2874 74.8862 56.792 77.2148 55.8012C79.5821 54.7736 81.3673 53.324 82.5704 51.4524C83.7735 49.5441 84.375 47.3055 84.375 44.7366C84.375 42.0943 83.7735 39.8374 82.5704 37.9658C81.3673 36.0942 79.5821 34.6629 77.2148 33.6721C74.8862 32.6445 71.995 32.1308 68.541 32.1308H60.5657V39.7824Z" fill="white"/>
</svg>
